<svg t="1595750420743" class="icon" viewBox="0 0 1024 1024" version="1.1" xmlns="http://www.w3.org/2000/svg" p-id="1904" width="32" height="32"><path d="M826.492061 0.061707l3.125788 0.350304c55.24023 9.485152 109.294816 193.825841 97.168912 343.567284-15.116961 186.38862-116.812877 325.594-317.375331 383.394143l-3.718611 0.997019 3.098843 0.485036c15.009175 2.155716 32.06628 3.503039 50.928797 3.826396l9.565991 0.08084c28.401562 0 37.482517 38.237018 12.125904 51.009637-137.804164 69.467958-295.494811 64.05172-471.131796-14.82055C168.78302 833.946662 148.222876 907.941624 148.222876 991.017541a26.946454 26.946454 0 1 1-53.892908 0C94.329968 759.924754 236.607244 591.239954 515.314414 487.550001a26.946454 26.946454 0 0 1 18.781678 50.497654c-130.232211 48.47667-227.023872 110.48046-291.102539 186.415566 111.666104 48.395831 213.335074 64.05172 305.653624 47.506598l3.853343-0.754501-1.212591-0.37725a185.526333 185.526333 0 0 1-13.06903-4.904255l-5.982112-2.667699c-14.470246-6.817453-25.329666-14.82055-31.257887-24.413487-12.934298-20.721823-0.808394-43.38379 20.66793-47.156294l3.341361-0.431143 9.431258-1.643733c215.302165-39.557394 320.393334-163.645813 337.82769-341.088211l0.808394-8.89233c5.631809-69.387118-3.071896-142.654526-21.664949-206.086477a439.577499 439.577499 0 0 0-13.203762-38.587322l-4.095861-9.862402-0.511983 1.347323c-46.671258 121.797971-127.133368 218.535739-203.284046 256.449399l-6.332417 3.04495c-35.03039 15.979247-67.608652 8.89233-63.081648-31.662083 0.619768-5.497077 1.994038-11.155832 4.392272-18.512214l4.284486-12.179797c2.398234-6.467149 8.542026-22.904486 10.697742-28.994384 4.203647-11.937279 7.652793-23.039218 10.293545-33.521389l1.320377-5.604862-21.718842 14.335513c-49.554528 32.335744-74.318319 45.270042-97.761734 53.138407l-22.527235 7.059971c-30.422546 9.835456-53.246192 19.940376-108.405583 48.773081-111.854729 58.527697-157.178664 151.223498-138.181415 283.988675a26.946454 26.946454 0 0 1-53.353978 7.625846C127.743571 475.370203 184.007766 360.308846 316.449586 291.029514l16.437337-8.515079c49.177278-25.30272 72.836264-35.084283 105.091169-45.296989l15.1978-4.688683 4.580897-1.562894c25.706917-9.107901 58.366019-28.617134 150.280372-91.510157a26.946454 26.946454 0 0 1 42.063414 20.021215c2.775485 33.063299-3.044949 65.318204-15.736729 103.420489l-4.095861 11.910333-2.748538 7.437221 2.748538-1.832359c63.916988-44.003559 131.229229-137.426914 165.828476-250.494233l3.044949-10.320492A26.946454 26.946454 0 0 1 826.492061 0.034761z" fill="#ffffff" p-id="1905"></path></svg>