<?xml version="1.0" standalone="no"?><!DOCTYPE svg PUBLIC "-//W3C//DTD SVG 1.1//EN" "http://www.w3.org/Graphics/SVG/1.1/DTD/svg11.dtd"><svg t="1595237142405" class="icon" viewBox="0 0 1024 1024" version="1.1" xmlns="http://www.w3.org/2000/svg" p-id="12852" xmlns:xlink="http://www.w3.org/1999/xlink" width="32" height="32"><defs><style type="text/css"></style></defs><path d="M993.218 980.866c-16.323 0-29.676-13.356-29.676-29.676 0-81.609-157.284-293.791-247.797-333.852-8.899-4.453-16.323-13.356-17.807-22.254s1.487-20.771 10.384-26.705c60.833-53.419 96.447-130.575 96.447-210.701 0-154.315-126.124-280.436-280.436-280.436-154.315 0-280.436 126.124-280.436 280.436 0 80.123 35.612 157.284 96.447 210.701 7.42 7.42 11.872 16.323 10.384 26.705-1.487 10.384-7.42 19.285-17.807 22.254-90.516 40.061-247.797 252.246-247.797 333.852 0 16.323-13.356 29.676-29.676 29.676s-29.676-13.356-29.676-29.676c0-100.9 142.443-293.791 247.797-366.502-56.385-62.318-87.545-142.443-87.545-227.020 0-186.958 152.834-339.79 339.79-339.79s339.79 152.834 339.79 339.79c0 84.577-31.162 164.703-87.545 227.020 105.347 72.706 247.797 265.601 247.797 366.502-2.966 16.323-16.323 29.676-32.642 29.676z" p-id="12853"></path></svg>