<?xml version="1.0" standalone="no"?><!DOCTYPE svg PUBLIC "-//W3C//DTD SVG 1.1//EN" "http://www.w3.org/Graphics/SVG/1.1/DTD/svg11.dtd"><svg t="1595256260514" class="icon" viewBox="0 0 1024 1024" version="1.1" xmlns="http://www.w3.org/2000/svg" p-id="16302" xmlns:xlink="http://www.w3.org/1999/xlink" width="32" height="32"><defs><style type="text/css"></style></defs><path d="M880.64 440.32m-30.72 0a30.72 30.72 0 1 0 61.44 0 30.72 30.72 0 1 0-61.44 0Z" p-id="16303" fill="#1296db"></path><path d="M911.36 330.752v-112.64c2.048-29.696-22.528-54.272-52.224-54.272H179.2c-29.696 0-54.272 24.576-54.272 54.272V686.08c0 29.696 24.576 54.272 54.272 54.272h246.784c8.192 20.48 20.48 46.08 38.912 66.56 24.576 28.672 64.512 43.008 113.664 43.008 29.696 0 54.272-5.12 61.44-8.192l61.44-21.504-55.296-35.84c-6.144-4.096-30.72-21.504-29.696-45.056h240.64c29.696 0 54.272-24.576 54.272-54.272V520.192c0-16.384-13.312-30.72-30.72-30.72-16.384 0-30.72 13.312-30.72 30.72v128L618.496 451.584l231.424-204.8v113.664c0 16.384 13.312 30.72 30.72 30.72 16.384 0 30.72-13.312 30.72-30.72v-29.696z m-722.944-48.128l214.016 164.864-214.016 189.44V282.624zM786.432 675.84l-208.896 1.024-9.216 15.36c-20.48 34.816-16.384 67.584-3.072 93.184-18.432-2.048-38.912-7.168-51.2-21.504-18.432-21.504-29.696-52.224-32.768-65.536l-7.168-22.528H239.616l215.04-189.44 66.56 51.2 50.176-44.032 215.04 182.272zM518.144 455.68l-296.96-228.352h553.984L518.144 455.68z" p-id="16304" fill="#1296db"></path></svg>