<?xml version="1.0" standalone="no"?><!DOCTYPE svg PUBLIC "-//W3C//DTD SVG 1.1//EN" "http://www.w3.org/Graphics/SVG/1.1/DTD/svg11.dtd"><svg t="1595256203003" class="icon" viewBox="0 0 1024 1024" version="1.1" xmlns="http://www.w3.org/2000/svg" p-id="15483" xmlns:xlink="http://www.w3.org/1999/xlink" width="32" height="32"><defs><style type="text/css"></style></defs><path d="M848 512h-16v-80c0-2.72-3.664-272-320-272S192 429.28 192 432v80h-16C78.96 512 0 590.96 0 688s78.96 176 176 176h48V432c0-9.792 3.28-240 288-240 283.824 0 287.968 230.224 288 240v432h48c97.04 0 176-78.96 176-176s-78.96-176-176-176zM192 832h-16c-79.408 0-144-64.608-144-144s64.592-144 144-144h16v288z m656 0h-16V544h16c79.408 0 144 64.608 144 144s-64.592 144-144 144z" fill="" p-id="15484"></path></svg>