<?xml version="1.0" standalone="no"?><!DOCTYPE svg PUBLIC "-//W3C//DTD SVG 1.1//EN" "http://www.w3.org/Graphics/SVG/1.1/DTD/svg11.dtd"><svg t="1595235608387" class="icon" viewBox="0 0 1024 1024" version="1.1" xmlns="http://www.w3.org/2000/svg" p-id="4190" xmlns:xlink="http://www.w3.org/1999/xlink" width="32" height="32"><defs><style type="text/css"></style></defs><path d="M247.164 308.281c-33.742 0-61.116 27.385-61.116 61.116 0 33.761 27.374 61.156 61.116 61.156 33.76 0 61.116-27.395 61.116-61.156 0-33.731-27.355-61.116-61.116-61.116m0 81.488c-11.26 0-20.372-9.102-20.372-20.372 0-11.24 9.111-20.372 20.372-20.372s20.372 9.132 20.372 20.372c0 11.27-9.112 20.372-20.372 20.372m244.464 244.463c5.63 0 10.723-2.248 14.403-5.989l40.744-40.743a20.125 20.125 0 0 0 5.967-14.345c0-11.28-9.11-20.411-20.37-20.411-5.61 0-10.704 2.287-14.405 5.988l-40.743 40.744c-3.68 3.7-5.968 8.754-5.968 14.384-0.001 11.28 9.111 20.372 20.372 20.372m462.585-156.988L546.775 69.806a20.248 20.248 0 0 0-14.404-5.99H247.164c-33.742 0-61.116 27.386-61.116 61.117 0 11.271 9.11 20.372 20.37 20.372s20.373-9.102 20.373-20.372c0-11.24 9.111-20.372 20.372-20.372h276.773l387.067 387.107-46.712 46.692c-3.68 3.69-5.968 8.764-5.968 14.385 0 11.28 9.132 20.41 20.372 20.41 5.63 0 10.723-2.286 14.403-6.027l61.116-61.106a20.247 20.247 0 0 0 5.969-14.354c-0.001-5.659-2.29-10.733-5.97-14.424M389.768 695.348c0 11.28 9.111 20.372 20.372 20.372 5.63 0 10.723-2.248 14.403-5.989l20.372-20.372a20.127 20.127 0 0 0 5.969-14.344c0-11.28-9.112-20.411-20.372-20.411a20.245 20.245 0 0 0-14.404 5.988l-20.371 20.372c-3.681 3.702-5.97 8.793-5.97 14.384m34.776-503.311a20.247 20.247 0 0 0-14.403-5.989H124.932c-33.742 0-61.116 27.385-61.116 61.116v285.208c0 5.63 2.287 10.723 5.968 14.393l407.44 407.43c3.7 3.74 8.793 5.988 14.402 5.988 5.63 0 10.724-2.248 14.404-5.989l325.952-325.95c3.7-3.66 5.968-8.754 5.968-14.384s-2.287-10.682-5.968-14.384l-407.44-407.44z m67.085 718.988L104.56 523.947V247.164c0-11.24 9.11-20.37 20.37-20.37h276.773L788.772 613.86 491.628 911.025z m0-113.817c5.63 0 10.723-2.248 14.403-5.989l81.487-81.488a20.231 20.231 0 0 0 5.97-14.384c0-11.26-9.112-20.332-20.373-20.332-5.63 0-10.723 2.248-14.403 5.948l-81.488 81.488c-3.68 3.7-5.968 8.753-5.968 14.424-0.001 11.24 9.111 20.333 20.372 20.333" p-id="4191"></path></svg>