<?xml version="1.0" standalone="no"?><!DOCTYPE svg PUBLIC "-//W3C//DTD SVG 1.1//EN" "http://www.w3.org/Graphics/SVG/1.1/DTD/svg11.dtd"><svg t="1596964184516" class="icon" viewBox="0 0 1024 1024" version="1.1" xmlns="http://www.w3.org/2000/svg" p-id="13891" xmlns:xlink="http://www.w3.org/1999/xlink" width="32" height="32"><defs><style type="text/css"></style></defs><path d="M832.8 255.3h-64.2v-87.7c0-57.6-47.2-104.8-104.8-104.8H360.1c-57.6 0-104.8 47.2-104.8 104.8v87.7c-70.6 0-128.3 57.8-128.3 128.3v117.5c0 6 4.9 10.8 10.8 10.8h53.3v385c0 35.3 28.9 64.2 64.2 64.2h513.3c35.3 0 64.2-28.9 64.2-64.2V512H897V319.5c0-35.3-28.9-64.2-64.2-64.2z m-513.3-87.7c0-22 18.6-40.6 40.6-40.6h303.7c22 0 40.6 18.6 40.6 40.6v87.7h-385v-87.7zM768.7 897H255.3V512h128.3v192.5h64.2V512h128.3v192.5h64.2V512h128.3v385z m64.1-449.2H191.1v-64.2c0-35.4 28.8-64.2 64.2-64.2h577.5v128.4z" p-id="13892" fill="#bfbfbf"></path></svg>