<?xml version="1.0" standalone="no"?><!DOCTYPE svg PUBLIC "-//W3C//DTD SVG 1.1//EN" "http://www.w3.org/Graphics/SVG/1.1/DTD/svg11.dtd"><svg t="1596958918343" class="icon" viewBox="0 0 1024 1024" version="1.1" xmlns="http://www.w3.org/2000/svg" p-id="12916" xmlns:xlink="http://www.w3.org/1999/xlink" width="32" height="32"><defs><style type="text/css"></style></defs><path d="M815.407407 896c-11.757037 0-21.333333-9.576296-21.333333-21.333333V267.946667c0-11.757037 9.576296-21.333333 21.333333-21.333334s21.333333 9.576296 21.333334 21.333334v606.72c0 11.757037-9.576296 21.333333-21.333334 21.333333z" p-id="12917" fill="#707070"></path><path d="M815.407407 289.28c-44.468148 0-80.592593-36.124444-80.592592-80.592593s36.124444-80.592593 80.592592-80.592592 80.592593 36.124444 80.592593 80.592592-36.124444 80.592593-80.592593 80.592593z m0-118.518519c-20.954074 0-37.925926 16.971852-37.925926 37.925926s16.971852 37.925926 37.925926 37.925926 37.925926-16.971852 37.925926-37.925926-16.971852-37.925926-37.925926-37.925926zM208.592593 777.481481c-11.757037 0-21.333333-9.576296-21.333334-21.333333v-606.814815c0-11.757037 9.576296-21.333333 21.333334-21.333333s21.333333 9.576296 21.333333 21.333333v606.814815c0 11.757037-9.576296 21.333333-21.333333 21.333333z" p-id="12918" fill="#707070"></path><path d="M208.592593 896c-44.468148 0-80.592593-36.124444-80.592593-80.592593s36.124444-80.592593 80.592593-80.592592 80.592593 36.124444 80.592592 80.592592-36.124444 80.592593-80.592592 80.592593z m0-118.518519c-20.954074 0-37.925926 16.971852-37.925926 37.925926s16.971852 37.925926 37.925926 37.925926 37.925926-16.971852 37.925926-37.925926-16.971852-37.925926-37.925926-37.925926z" p-id="12919" fill="#707070"></path><path d="M512 896c-11.757037 0-21.333333-9.576296-21.333333-21.333333v-304.355556c0-11.757037 9.576296-21.333333 21.333333-21.333333s21.333333 9.576296 21.333333 21.333333v304.355556c0 11.757037-9.576296 21.333333-21.333333 21.333333z" p-id="12920" fill="#707070"></path><path d="M512 591.644444c-44.468148 0-80.592593-36.124444-80.592593-80.592592s36.124444-80.592593 80.592593-80.592593 80.592593 36.124444 80.592593 80.592593-36.124444 80.592593-80.592593 80.592592z m0-118.518518c-20.954074 0-37.925926 16.971852-37.925926 37.925926s16.971852 37.925926 37.925926 37.925926 37.925926-16.971852 37.925926-37.925926-16.971852-37.925926-37.925926-37.925926z" p-id="12921" fill="#707070"></path><path d="M512 473.125926c-11.757037 0-21.333333-9.576296-21.333333-21.333333v-302.45926c0-11.757037 9.576296-21.333333 21.333333-21.333333s21.333333 9.576296 21.333333 21.333333v302.45926c0 11.757037-9.576296 21.333333-21.333333 21.333333z" p-id="12922" fill="#707070"></path></svg>