<?xml version="1.0" standalone="no"?><!DOCTYPE svg PUBLIC "-//W3C//DTD SVG 1.1//EN" "http://www.w3.org/Graphics/SVG/1.1/DTD/svg11.dtd"><svg t="1597304619134" class="icon" viewBox="0 0 1030 1024" version="1.1" xmlns="http://www.w3.org/2000/svg" p-id="1395" xmlns:xlink="http://www.w3.org/1999/xlink" width="32.1875" height="32"><defs><style type="text/css"></style></defs><path d="M511.999996 0C229.260123 0-4.0e-06 229.238701-4.0e-06 512c0 282.782725 229.238701 512 512 512 282.782725 0 512-229.217275 512-512C1024.021422 229.238701 794.804147 0 511.999996 0zM511.999996 958.842986c-246.786743 0-446.82156-200.056244-446.82156-446.842986 0-246.786743 200.056244-446.82156 446.82156-446.82156 246.829595 0 446.842986 200.034818 446.842986 446.82156C958.864408 758.786743 758.829591 958.842986 511.999996 958.842986z" p-id="1396"></path><path d="M365.102105 328.52762l85.70472 0 0 385.671242-85.70472 0 0-385.671242Z" p-id="1397"></path><path d="M536.511546 328.52762l107.130901 0 0 385.671242-107.130901 0 0-385.671242Z" p-id="1398"></path></svg>