<?xml version="1.0" standalone="no"?><!DOCTYPE svg PUBLIC "-//W3C//DTD SVG 1.1//EN" "http://www.w3.org/Graphics/SVG/1.1/DTD/svg11.dtd"><svg t="1597304564035" class="icon" viewBox="0 0 1024 1024" version="1.1" xmlns="http://www.w3.org/2000/svg" p-id="1218" width="32" height="32" xmlns:xlink="http://www.w3.org/1999/xlink"><defs><style type="text/css"></style></defs><path d="M511.994276 45.348032a466.772179 466.772179 0 0 1 181.632548 896.633968 466.775614 466.775614 0 0 1-363.265096-859.975448 463.6696 463.6696 0 0 1 181.632548-36.65852m0-39.623716C232.384334 5.724316 5.724316 232.407231 5.724316 511.994276s226.660018 506.26996 506.26996 506.269959 506.26996-226.660018 506.269959-506.269959S791.604217 5.724316 511.994276 5.724316z" fill="#231815" p-id="1219"></path><path d="M511.994276 1023.988551A512.131659 512.131659 0 0 1 312.696488 40.230493a512.133949 512.133949 0 0 1 398.595575 943.527565 508.845902 508.845902 0 0 1-199.297787 40.230493z m0-1012.539919C235.990653 11.448632 11.448632 235.990653 11.448632 511.994276s224.542021 500.545644 500.545644 500.545643 500.545644-224.542021 500.545643-500.545643S787.997898 11.448632 511.994276 11.448632z m0 972.916204A470.756303 470.756303 0 1 1 695.847858 947.259819a469.531299 469.531299 0 0 1-183.853582 37.105017z m0-933.292488a459.284774 459.284774 0 1 0 179.400065 36.177677 458.05977 458.05977 0 0 0-179.400065-36.177677z" p-id="1220"></path><path d="M386.059323 315.352571l340.63115 196.641705-340.63115 196.641704V315.352571m-28.28957-60.368637a11.334146 11.334146 0 0 0-11.334146 11.334146V757.670472a11.334146 11.334146 0 0 0 11.334146 11.334145 11.208211 11.208211 0 0 0 5.644175-1.534116l425.557104-245.676196a11.311249 11.311249 0 0 0 0-19.600058L363.448274 256.518051a11.208211 11.208211 0 0 0-5.644175-1.534117z" fill="#231815" p-id="1221"></path><path d="M357.804099 774.728934a17.081359 17.081359 0 0 1-17.058462-17.058462V266.31808a17.024116 17.024116 0 0 1 25.564795-14.757287l425.522758 245.664747a17.047013 17.047013 0 0 1 0 29.526022L366.310432 772.427758a17.058462 17.058462 0 0 1-8.506333 2.301176z m0-514.043581a5.621278 5.621278 0 0 0-5.60983 5.609829v491.37529a5.621278 5.621278 0 0 0 5.60983 5.609829 5.541138 5.541138 0 0 0 2.782017-0.767058l425.522758-245.676196a5.598381 5.598381 0 0 0 0-9.685543L360.586116 261.475308a5.541138 5.541138 0 0 0-2.782017-0.767058z m22.530908 457.865143V305.438056l357.804098 206.55622z m11.448632-393.28341v373.454379l323.458202-186.727189z" p-id="1222"></path></svg>