<svg t="1595519874067" class="icon" viewBox="0 0 1024 1024" version="1.1" xmlns="http://www.w3.org/2000/svg" p-id="8713" width="32" height="32"><path d="M512 256c226.230857 0 409.6 263.314286 409.6 263.314286s-183.369143 248.685714-409.6 248.685714-409.6-248.685714-409.6-248.685714 183.369143-263.314286 409.6-263.314286m0-58.514286c-253.864229 0-449.418971 276.611657-457.610971 288.387657a58.528914 58.528914 0 0 0 0.9216 68.169143C63.517257 565.174857 259.130514 826.514286 512 826.514286s448.482743-261.339429 456.704-272.471772a58.528914 58.528914 0 0 0 0.9216-68.169143C961.418971 474.097371 765.864229 197.485714 512 197.485714z" fill="#bfbfbf" p-id="8714"></path><path d="M408.312686 339.6608a14.628571 14.628571 0 0 1-5.5296-28.174629 326.217143 326.217143 0 0 1 35.050057-12.0832 14.628571 14.628571 0 1 1 7.914057 28.16c-10.561829 2.954971-21.284571 6.656-31.919543 11.000686a14.379886 14.379886 0 0 1-5.514971 1.097143zM178.293029 532.5824a14.628571 14.628571 0 0 1-11.9808-22.996114c2.442971-3.510857 60.8256-86.615771 150.659657-150.235429a14.657829 14.657829 0 0 1 16.925257 23.888457c-85.694171 60.664686-142.994286 142.248229-143.5648 143.0528a14.613943 14.613943 0 0 1-12.039314 6.290286zM512 398.409143a120.905143 120.905143 0 1 1 0 241.810286 120.905143 120.905143 0 0 1 0-241.810286m0-29.257143c-82.797714 0-150.162286 67.349943-150.162286 150.162286S429.202286 669.476571 512 669.476571 662.162286 602.112 662.162286 519.314286 594.797714 369.152 512 369.152z" fill="#bfbfbf" p-id="8715"></path><path d="M512 519.314286m-45.933714 0a45.933714 45.933714 0 1 0 91.867428 0 45.933714 45.933714 0 1 0-91.867428 0Z" fill="#bfbfbf" p-id="8716"></path></svg>