<svg t="1595519817593" class="icon" viewBox="0 0 1024 1024" version="1.1" xmlns="http://www.w3.org/2000/svg" p-id="6661" width="32" height="32"><path d="M512 423.451268c-48.90278 0-88.550779 39.644929-88.550779 88.550779 0 48.90278 39.647999 88.546685 88.550779 88.546685s88.548732-39.642882 88.548732-88.546685C600.547709 463.09722 560.90278 423.451268 512 423.451268zM512 556.342927c-24.492834 0-44.342927-19.85214-44.342927-44.340881 0-24.492834 19.850094-44.344974 44.342927-44.344974 24.489764 0 44.342927 19.85214 44.342927 44.344974C556.342927 536.489764 536.489764 556.342927 512 556.342927zM246.352781 423.451268c-48.90278 0-88.546685 39.644929-88.546685 88.550779 0 48.90278 39.642882 88.546685 88.546685 88.546685 48.904827 0 88.550779-39.642882 88.550779-88.546685C334.902536 463.09722 295.257607 423.451268 246.352781 423.451268zM246.352781 556.342927c-24.487717 0-44.342927-19.85214-44.342927-44.340881 0-24.492834 19.85521-44.344974 44.342927-44.344974 24.492834 0 44.344974 19.85214 44.344974 44.344974C290.697755 536.489764 270.844591 556.342927 246.352781 556.342927zM512 47.120181c-281.198403 0-509.153162 199.085244-509.153162 444.668499 0 89.387843 31.572066 171.628916 82.175581 242.324024 33.535791 46.851051-41.444924 242.766093-41.444924 242.766093s255.17675-75.370595 305.491693-60.638055c50.879807 14.900362 106.309234 20.213367 162.930813 20.213367 281.196357 0 509.153162-199.083198 509.153162-444.665429S793.196357 47.120181 512 47.120181zM512 890.730741c-49.764404 0-96.562243-7.528464-141.510968-19.976984-42.48358-11.763928-256.958326 39.71349-256.958326 39.71349s54.006008-160.357198 34.586726-179.545212c-61.281715-60.554144-100.885711-149.708674-100.885711-239.711524 0-220.647329 208.084199-399.519206 464.768279-399.519206s464.768279 178.871877 464.768279 399.519206C976.768279 711.859887 768.68408 890.730741 512 890.730741zM777.645173 423.451268c-48.904827 0-88.548732 39.644929-88.548732 88.550779 0 48.90278 39.642882 88.546685 88.548732 88.546685 48.90278 0 88.548732-39.642882 88.548732-88.546685C866.193905 463.09722 826.547952 423.451268 777.645173 423.451268zM777.645173 556.342927c-24.489764 0-44.344974-19.85214-44.344974-44.340881 0-24.492834 19.85521-44.344974 44.344974-44.344974s44.342927 19.85214 44.342927 44.344974C821.9881 536.489764 802.134937 556.342927 777.645173 556.342927z" p-id="6662" fill="#bfbfbf"></path></svg>