<svg t="1595518452702" class="icon" viewBox="0 0 1027 1024" version="1.1" xmlns="http://www.w3.org/2000/svg" p-id="2123" width="32" height="32"><path d="M1006.853792 1024H17.065319c-10.239191 0-17.065319-6.826127-17.065319-17.065319v-10.239191c0-109.218038 71.674338-201.370758 177.479312-228.675268l167.240122-40.956764 17.065318-64.84821c-40.956764-44.369828-71.674338-102.391911-78.500465-160.413994-27.30451-3.413064-47.782892-23.891446-51.195955-51.195956l-10.239191-85.326592c-3.413064-17.065319 3.413064-34.130637 13.652254-47.782892 6.826127-6.826127 17.065319-13.652255 27.30451-17.065319C252.566714 273.125986 238.914459 225.343094 238.914459 204.864712c0-112.631102 71.674338-167.240121 215.023013-170.653185 54.609019-37.543701 116.044166-34.130637 150.174803-34.130637h13.652255c71.674338 0 129.696421 27.30451 163.827058 75.087401 34.130637 54.609019 13.652255 88.739656-13.652255 119.45723l-17.065319 17.065318v98.978847c6.826127 3.413064 13.652255 6.826127 20.478382 13.652255 10.239191 13.652255 17.065319 34.130637 13.652255 54.609019l-17.065318 85.326593c-3.413064 27.30451-20.478382 30.717573-34.130637 30.717573-10.239191 68.261274-37.543701 133.109484-75.087402 174.066249l13.652255 61.435147 167.240122 40.956764c105.804975 27.30451 187.718504 129.696421 187.718503 235.501395-3.413064 10.239191-10.239191 17.065319-20.478382 17.065319zM34.130637 989.869363h955.657836c-6.826127-85.326593-75.087401-167.240121-160.413994-187.718504l-177.479312-44.369828c-6.826127 0-10.239191-6.826127-13.652255-13.652255l-20.478382-78.500465c0-6.826127 0-13.652255 6.826127-17.065318 47.782892-44.369828 68.261274-116.044166 75.087402-174.066249 0-10.239191 6.826127-17.065319 17.065318-17.065318h17.065319v-3.413064l17.065318-85.326593c0-10.239191 0-20.478382-6.826127-27.304509-3.413064-3.413064-6.826127-3.413064-10.239191-3.413064-10.239191 3.413064-17.065319-3.413064-17.065319-13.652255V204.864712c0-3.413064 3.413064-10.239191 3.413064-13.652255l23.891446-20.478382c23.891446-27.30451 30.717573-44.369828 10.239191-75.087402-27.30451-37.543701-75.087401-61.435147-133.109484-61.435146h-13.652255c-34.130637 0-88.739656-3.413064-136.522548 30.717573-3.413064 3.413064-6.826127 3.413064-10.239191 3.413064C293.523478 71.755227 273.045096 143.429565 273.045096 204.864712c0 17.065319 17.065319 75.087401 27.30451 105.804974 0 6.826127 0 10.239191-3.413064 13.652255-3.413064 6.826127-6.826127 10.239191-13.652255 10.239191h-3.413063c-6.826127 0-13.652255 3.413064-20.478383 10.239191-3.413064 6.826127-6.826127 13.652255-6.826127 20.478383l10.239191 85.326592c0 13.652255 13.652255 23.891446 23.891446 23.891446h6.826127c10.239191 0 17.065319 6.826127 17.065319 17.065319 3.413064 61.435147 34.130637 119.45723 78.500465 160.413994 3.413064 3.413064 6.826127 10.239191 3.413064 17.065318l-17.065319 78.500465c0 6.826127-6.826127 10.239191-13.652255 13.652255l-177.479312 44.369828c-85.326593 20.478382-146.761739 95.565784-150.174803 184.30544z" fill="#bfbfbf" p-id="2124"></path></svg>